<?xml version="1.0" encoding="UTF-8"?>
<svg version="1.1" xmlns="http://www.w3.org/2000/svg" width="32" height="32">
<path d="M0 0 C0.556875 0.350625 1.11375 0.70125 1.6875 1.0625 C4.5828428 2.23628762 6.01253695 1.74686576 9 1 C10.32 1 11.64 1 13 1 C13.2226746 2.43534841 13.42761906 3.87345525 13.625 5.3125 C13.79902344 6.51326172 13.79902344 6.51326172 13.9765625 7.73828125 C14 10 14 10 12 13 C13.11375 13.433125 13.11375 13.433125 14.25 13.875 C16.56900199 14.82368263 18.76932676 15.86559779 21 17 C20.90460937 16.38511719 20.80921875 15.77023438 20.7109375 15.13671875 C20.60007812 14.32847656 20.48921875 13.52023437 20.375 12.6875 C20.20097656 11.48673828 20.20097656 11.48673828 20.0234375 10.26171875 C20 8 20 8 22 5 C22.99 5 23.98 5 25 5 C24.814375 6.03125 24.62875 7.0625 24.4375 8.125 C23.80199701 11.90470884 23.80199701 11.90470884 24.6875 15.1875 C24.790625 16.115625 24.89375 17.04375 25 18 C23.1875 20.0625 23.1875 20.0625 21 22 C20.01 24.475 20.01 24.475 19 27 C13.72 27 8.44 27 3 27 C3.33 25.35 3.66 23.7 4 22 C3.16666667 19.91666667 3.16666667 19.91666667 2 18 C1.87625 17.34 1.7525 16.68 1.625 16 C0.76744189 13.25581405 -0.89862271 11.8980182 -3 10 C-2.67 9.34 -2.34 8.68 -2 8 C-1.835 6.824375 -1.67 5.64875 -1.5 4.4375 C-1 1 -1 1 0 0 Z M7 22 C7.33 23.32 7.66 24.64 8 26 C8.33 24.68 8.66 23.36 9 22 C8.34 22 7.68 22 7 22 Z " fill="#C09B8C" transform="translate(5,1)"/>
<path d="M0 0 C0.99 0 1.98 0 3 0 C2.814375 1.03125 2.62875 2.0625 2.4375 3.125 C1.80199701 6.90470884 1.80199701 6.90470884 2.6875 10.1875 C3 13 3 13 1.25 15.375 C-1 17 -1 17 -4 17 C-4.33 16.34 -4.66 15.68 -5 15 C-5.99 15 -6.98 15 -8 15 C-8.33 16.65 -8.66 18.3 -9 20 C-10.32 20 -11.64 20 -13 20 C-13.33 18.35 -13.66 16.7 -14 15 C-13.34 14.67 -12.68 14.34 -12 14 C-12 13.01 -12 12.02 -12 11 C-12.66 10.34 -13.32 9.68 -14 9 C-11.3125 8.25 -11.3125 8.25 -8 8 C-5.25 9.9375 -5.25 9.9375 -3 12 C-2.34 12 -1.68 12 -1 12 C-1.09539063 11.38511719 -1.19078125 10.77023438 -1.2890625 10.13671875 C-1.39992188 9.32847656 -1.51078125 8.52023437 -1.625 7.6875 C-1.74101562 6.88699219 -1.85703125 6.08648437 -1.9765625 5.26171875 C-2 3 -2 3 0 0 Z " fill="#D28559" transform="translate(27,6)"/>
<path d="M0 0 C0.556875 0.350625 1.11375 0.70125 1.6875 1.0625 C4.5828428 2.23628762 6.01253695 1.74686576 9 1 C10.32 1 11.64 1 13 1 C13.33 3.97 13.66 6.94 14 10 C13.01 10.495 13.01 10.495 12 11 C11.67 10.34 11.34 9.68 11 9 C9.02 9.33 7.04 9.66 5 10 C4.01 8.68 3.02 7.36 2 6 C2 6.99 2 7.98 2 9 C2.66 9.66 3.32 10.32 4 11 C2.02 11.99 2.02 11.99 0 13 C-0.99 12.01 -1.98 11.02 -3 10 C-2.67 9.34 -2.34 8.68 -2 8 C-1.835 6.824375 -1.67 5.64875 -1.5 4.4375 C-1 1 -1 1 0 0 Z " fill="#EF9F82" transform="translate(5,1)"/>
<path d="M0 0 C0.66 0.33 1.32 0.66 2 1 C2.33 1.99 2.66 2.98 3 4 C6.465 3.505 6.465 3.505 10 3 C10 4.65 10 6.3 10 8 C9.38125 8.2475 8.7625 8.495 8.125 8.75 C5.64931313 10.20628639 5.04874998 11.37812506 4 14 C2.68 13.67 1.36 13.34 0 13 C-0.625 10.625 -0.625 10.625 -1 8 C-0.34 7.34 0.32 6.68 1 6 C0.34 5.34 -0.32 4.68 -1 4 C-0.625 1.875 -0.625 1.875 0 0 Z " fill="#B8C0CF" transform="translate(7,6)"/>
<path d="M0 0 C0.66 0.33 1.32 0.66 2 1 C2 1.66 2 2.32 2 3 C1.525625 3.433125 1.05125 3.86625 0.5625 4.3125 C-1.41383086 6.44693733 -1.61663236 8.16307947 -2 11 C-3.32 11 -4.64 11 -6 11 C-6.33 9.35 -6.66 7.7 -7 6 C-6.34 5.67 -5.68 5.34 -5 5 C-5 4.01 -5 3.02 -5 2 C-5.66 1.34 -6.32 0.68 -7 0 C-4.30919898 -1.34540051 -2.86443593 -0.71610898 0 0 Z " fill="#DD9262" transform="translate(20,15)"/>
<path d="M0 0 C1.32 0.33 2.64 0.66 4 1 C3.67 2.32 3.34 3.64 3 5 C2.34 5 1.68 5 1 5 C1 6.65 1 8.3 1 10 C1.66 10 2.32 10 3 10 C3 10.66 3 11.32 3 12 C0.69 12 -1.62 12 -4 12 C-3.814375 11.236875 -3.62875 10.47375 -3.4375 9.6875 C-2.77180827 6.91032625 -2.77180827 6.91032625 -4 4 C-3.01 3.67 -2.02 3.34 -1 3 C-0.67 2.01 -0.34 1.02 0 0 Z " fill="#D9BAA7" transform="translate(12,16)"/>
<path d="M0 0 C0.99 0 1.98 0 3 0 C2.67 1.32 2.34 2.64 2 4 C1.34 4 0.68 4 0 4 C0.33 6.97 0.66 9.94 1 13 C0.01 13.495 0.01 13.495 -1 14 C-1.22226864 12.23086176 -1.42733873 10.45955629 -1.625 8.6875 C-1.74101562 7.70136719 -1.85703125 6.71523437 -1.9765625 5.69921875 C-2 3 -2 3 0 0 Z " fill="#EED6C0" transform="translate(27,6)"/>
<path d="M0 0 C0.66 0.33 1.32 0.66 2 1 C2.33 1.99 2.66 2.98 3 4 C4.65 4.33 6.3 4.66 8 5 C7.01 5.99 6.02 6.98 5 8 C2.53199953 6.84826645 0.95216435 5.95216435 -1 4 C-0.625 1.875 -0.625 1.875 0 0 Z " fill="#F9F9FB" transform="translate(7,6)"/>
<path d="M0 0 C0 1.98 0 3.96 0 6 C-1.32 6 -2.64 6 -4 6 C-4.33 4.35 -4.66 2.7 -5 1 C-3 0 -3 0 0 0 Z " fill="#BF7A59" transform="translate(18,20)"/>
<path d="M0 0 C0.99 0 1.98 0 3 0 C3 0.66 3 1.32 3 2 C3.66 2.66 4.32 3.32 5 4 C3.02 4.99 3.02 4.99 1 6 C0.01 5.01 -0.98 4.02 -2 3 C-1.34 2.01 -0.68 1.02 0 0 Z " fill="#ADA6B6" transform="translate(4,8)"/>
<path d="M0 0 C0.99 0.33 1.98 0.66 3 1 C3.33 3.97 3.66 6.94 4 10 C3.01 10.495 3.01 10.495 2 11 C0.19769832 7.17010894 -0.19622241 4.21878192 0 0 Z " fill="#EAA877" transform="translate(15,1)"/>
<path d="M0 0 C1.98 0.495 1.98 0.495 4 1 C3.67 2.32 3.34 3.64 3 5 C1.68 4.67 0.36 4.34 -1 4 C-0.67 2.68 -0.34 1.36 0 0 Z " fill="#F6CA9F" transform="translate(19,20)"/>
<path d="M0 0 C1.32 0.66 2.64 1.32 4 2 C4 2.66 4 3.32 4 4 C1 6 1 6 -1 7 C-1.04254356 5.00045254 -1.04080783 2.99958364 -1 1 C-0.67 0.67 -0.34 0.34 0 0 Z " fill="#C26D4F" transform="translate(5,1)"/>
<path d="M0 0 C1.65 0 3.3 0 5 0 C5.33 0.99 5.66 1.98 6 3 C4.02 3.33 2.04 3.66 0 4 C0 2.68 0 1.36 0 0 Z " fill="#8A9A9B" transform="translate(10,7)"/>
<path d="M0 0 C2.475 0.495 2.475 0.495 5 1 C4.67 1.99 4.34 2.98 4 4 C2.68 3.67 1.36 3.34 0 3 C0 2.01 0 1.02 0 0 Z " fill="#F5F6F9" transform="translate(7,16)"/>
<path d="" fill="#C7CFDD" transform="translate(0,0)"/>
</svg>
